<svg xmlns="http://www.w3.org/2000/svg" xmlns:xlink="http://www.w3.org/1999/xlink" width="64" height="64" viewBox="0 0 64 64">
    <defs>
        <filter id="prefix__a" width="183.3%" height="183.3%" x="-41.7%" y="-41.7%" filterUnits="objectBoundingBox">
            <feOffset dy="2" in="SourceAlpha" result="shadowOffsetOuter1"/>
            <feGaussianBlur in="shadowOffsetOuter1" result="shadowBlurOuter1" stdDeviation="4"/>
            <feColorMatrix in="shadowBlurOuter1" result="shadowMatrixOuter1" values="0 0 0 0 0 0 0 0 0 0 0 0 0 0 0 0 0 0 0.5 0"/>
            <feMerge>
                <feMergeNode in="shadowMatrixOuter1"/>
                <feMergeNode in="SourceGraphic"/>
            </feMerge>
        </filter>
        <circle id="prefix__b" cx="24" cy="24" r="24"/>
    </defs>
    <g fill="none" fill-rule="evenodd" filter="url(#prefix__a)" transform="translate(8 6)">
        <circle cx="24" cy="24" r="24" fill="#061B2B" fill-rule="nonzero"/>
        <mask id="prefix__c" fill="#fff">
            <use xlink:href="#prefix__b"/>
        </mask>
        <g mask="url(#prefix__c)">
            <g fill-rule="nonzero" transform="translate(6 10)">
                <ellipse cx="34.72" cy="10.494" fill="#5ACA9C" rx="2.224" ry="3.197"/>
                <path fill="#FFF" d="M35.681 10.703c0 5.282-7.693 9.56-17.189 9.56s-17.189-4.278-17.189-9.56C1.303 5.42 9.717.067 19.213.067s16.468 5.354 16.468 10.636z"/>
                <path fill="#061B2B" d="M27.736 15.124H10.21c-1.592 0-2.897-1.296-2.897-2.88V7.608c0-1.584 1.305-2.88 2.897-2.88h17.526c1.592 0 2.897 1.296 2.897 2.88v4.636c0 1.584-1.305 2.88-2.897 2.88z"/>
                <path fill="#061B2B" d="M8.636 13.69L8.996 17.156 15.487 14.168z"/>
                <path fill="#EC83B5" d="M17.795 11.659c-.018.095-.024.197-.024.298 0 .956.781 1.733 1.743 1.733.962 0 1.743-.777 1.743-1.733 0-.101-.012-.203-.024-.298h-3.438z"/>
                <ellipse cx="13.083" cy="9.388" fill="#86D6F7" rx="1.923" ry="1.912"/>
                <ellipse cx="25.945" cy="9.269" fill="#86D6F7" rx="1.923" ry="1.912"/>
                <path fill="#FFF" d="M27.327 33.587c-2.152 6.136-4.117 11.77-9.195 11.77-5.079 0-7.369-5.526-9.196-11.77-3.967-13.563 4.117-11.77 9.196-11.77 5.078 0 14.123-2.271 9.195 11.77zM6.616 25.42l1.935 11.656c.018.12-.138.18-.204.078-.98-1.47-4.099-6.214-4.159-6.853-.066-.73.012-1.93.102-2.856.072-.807.601-1.506 1.365-1.799l.81-.316c.067-.024.14.017.151.09zM30.02 25.831l-2.218 11.27c-.012.053.066.089.096.041l4.075-6.023c.306-.454.469-.986.469-1.535v-.932c0-.974-.53-1.865-1.389-2.337l-.955-.52c-.036-.011-.072.007-.078.036z"/>
                <path fill="#5ACA9C" d="M3.707 10.882c0 1.763-.216 3.256-1.442 3.256S.04 12.704.04 10.942c0-1.763.998-3.197 2.224-3.197 1.226 0 1.442 1.374 1.442 3.137z"/>
                <g>
                    <path fill="#061B2B" d="M3.351 0C2.573 0 2.033.51 1.71 1.36l-.014.038c-.194.523-.296 1.069-.432 2.109l-.055.43c-.098.743-.16 1.098-.256 1.436l-.012.042c-.098.33-.774.725-.859.766l1.01 1.003c.51-.223.84-.641 1.047-1.353l.009-.03c.129-.45.198-.865.314-1.752l.034-.264c.128-.992.218-1.48.368-1.876.141-.37.273-.5.476-.504h.011c.133 0 .228.097.35.44l.013.038c.114.338.188.737.3 1.553l.07.526c.108.801.187 1.254.316 1.711.195.691.472 1.2.9 1.51l.02.016.669-1.19c-.138-.096-.27-.334-.386-.733l-.017-.061c-.1-.365-.17-.773-.268-1.506l-.048-.36c-.14-1.047-.227-1.523-.403-2.022C4.575.502 4.08 0 3.35 0z" transform="translate(14.521 26.833)"/>
                    <path fill="#000" d="M5.23 5.18c.527 0 .862.18.605-.22s-.613-1.616-1.14-1.616c-.529 0-.622.618-.56.989.062.371.566.846 1.094.846zM1.449 5.995c-.528 0-.863.18-.606-.22s.613-1.615 1.14-1.615c.529 0 .622.618.56.989-.062.37-.566.846-1.094.846z" transform="translate(14.521 26.833)"/>
                    <path fill="#52CA9C" d="M.082 6.181c2.67-2.604 5.516-2.63 8.189-.078l.08.078-1.077 1.094C5.197 5.25 3.296 5.23 1.223 7.215l-.063.06L.082 6.181z" transform="translate(14.521 26.833)"/>
                </g>
            </g>
        </g>
    </g>
</svg>
